<svg xmlns="http://www.w3.org/2000/svg" width="293" height="392.824" viewBox="0 0 293 392.824">
  <g id="Group_134" data-name="Group 134" transform="translate(-641.5 -448.737)">
    <path id="Path_6" data-name="Path 6" d="M821.151,482.535H758.909c.213-9.924,3.927-18.116,11.675-24.138,10.2-7.928,21.53-9.267,33.131-3.584C814.877,460.281,820.457,469.707,821.151,482.535Z" fill="none" stroke="#e2e2e2" stroke-miterlimit="10" stroke-width="5"/>
    <path id="Path_7" data-name="Path 7" d="M781.013,587.456a17.459,17.459,0,1,1,17.965,0l-1.017.562q0,37.777-.006,75.554c0,3.116,0,6.232,0,9.823,26.479-5.036,43.372-20.144,51.454-46.1,1.175,1.313,2.06,2.294,2.937,3.283a45.425,45.425,0,0,1,11.537,29.865c.184,6.612,5.1,11.438,11.37,11.436a11.474,11.474,0,0,0,11.422-11.729,59.068,59.068,0,0,0-.721-9.354c-3.431-21.566-14.646-37.885-33.335-49.128-.654-.393-1.542-1.143-1.553-1.741-.116-5.941-.071-11.885-.071-18.012,9,0,17.622,0,26.248,0,7.5.005,12.912-4.841,12.848-11.508-.064-6.74-5.17-11.348-12.615-11.36q-11.675-.017-23.35,0h-2.9a7.256,7.256,0,0,1-.221-1c-.016-2.752.136-5.517-.081-8.253-.169-2.122.721-3.119,2.446-4.192q31.746-19.742,33.318-57.155c.285-6.985-4.505-12.231-10.928-12.437-6.781-.218-11.495,4.547-11.948,11.7a64.472,64.472,0,0,1-1.579,11.235,41.358,41.358,0,0,1-10.888,19.324c-.2-.429-.338-.583-.34-.739-.023-1.424-.022-2.848-.031-4.271-.047-7.385-4.721-12.115-12.08-12.145-8.258-.034-16.516-.012-24.773-.012q-36.163,0-72.327.011c-8.324.006-12.722,4.483-12.762,12.889-.006,1.36,0,2.72,0,4.539-.737-.673-1.03-.9-1.274-1.17-7.7-8.555-11.322-18.664-11.668-30.1a11.173,11.173,0,0,0-11.75-11.26,11.289,11.289,0,0,0-11.007,12.041A74.746,74.746,0,0,0,694.6,500.2c4.063,19.965,14.985,35.142,32.4,45.7.8.485,1.892,1.346,1.934,2.083.2,3.57.091,7.157.091,11.057h-3.336c-7.688,0-15.377-.029-23.064.025a17,17,0,0,0-4.769.55,11.23,11.23,0,0,0-7.827,12.1,11.352,11.352,0,0,0,11.48,10.161c7.876.131,15.756.036,23.634.039,1.2,0,2.406,0,3.469,0,.215.5.348.668.349.836.028,5.03-.085,10.065.118,15.087.089,2.214-.719,3.286-2.558,4.43-21.275,13.237-32.343,32.473-33.209,57.491a11.454,11.454,0,0,0,11.316,12.122c6.365.084,11.106-4.84,11.554-11.608a65.465,65.465,0,0,1,1.608-11.517,43.013,43.013,0,0,1,12.856-21.208c7.822,25.246,24.322,40.384,50.375,45.661v-5.921q0-39.243-.005-78.486Z" fill="none" stroke="#e2e2e2" stroke-linecap="round" stroke-linejoin="round" stroke-width="5"/>
    <rect id="Rectangle_6" data-name="Rectangle 6" width="288" height="81.808" rx="4.214" transform="translate(644 741.239)" fill="none" stroke="#e2e2e2" stroke-miterlimit="10" stroke-width="5"/>
    <text id="Kevin42" transform="translate(657.518 737.561)" fill="#e2e2e2" font-size="32.576" font-family="SegoeUI, Segoe UI"><tspan x="0" y="35">Kevin42</tspan></text>
    <line id="Line_9" data-name="Line 9" y1="55.7" transform="translate(814.076 751.511)" fill="none" stroke="#e2e2e2" stroke-miterlimit="10" stroke-width="3"/>
  </g>
</svg>
