<svg xmlns="http://www.w3.org/2000/svg" width="294" height="393.33" viewBox="0 0 294 393.33">
  <g id="Group_162" data-name="Group 162" transform="translate(-658.185 -451.027)">
    <path id="Path_211" data-name="Path 211" d="M4252.336,485.331h-62.242c.213-9.924,3.927-18.115,11.675-24.138,10.2-7.928,21.53-9.267,33.132-3.583C4246.062,463.077,4251.643,472.5,4252.336,485.331Z" transform="translate(-3414)" fill="none" stroke="#2f2f2f" stroke-miterlimit="10" stroke-width="6"/>
    <path id="Path_212" data-name="Path 212" d="M4212.2,590.252a17.459,17.459,0,1,1,17.965,0l-1.017.562q0,37.777-.006,75.554v9.823c26.479-5.035,43.372-20.144,51.454-46.1,1.175,1.313,2.061,2.294,2.937,3.283a45.419,45.419,0,0,1,11.537,29.864c.185,6.613,5.1,11.439,11.37,11.437a11.474,11.474,0,0,0,11.422-11.73,59.039,59.039,0,0,0-.721-9.353c-3.43-21.567-14.645-37.886-33.335-49.129-.653-.393-1.542-1.142-1.553-1.741-.116-5.94-.071-11.884-.071-18.011,9,0,17.622,0,26.248,0,7.5,0,12.912-4.842,12.848-11.509-.064-6.74-5.17-11.348-12.615-11.359q-11.675-.018-23.35,0h-2.9a7.206,7.206,0,0,1-.222-1c-.016-2.752.136-5.517-.081-8.253-.168-2.122.721-3.118,2.446-4.191q31.748-19.743,33.318-57.156c.285-6.985-4.5-12.23-10.928-12.437-6.781-.217-11.495,4.548-11.947,11.7a64.584,64.584,0,0,1-1.58,11.235,41.363,41.363,0,0,1-10.888,19.325c-.2-.43-.337-.584-.34-.74-.023-1.424-.022-2.847-.031-4.271-.047-7.384-4.721-12.114-12.08-12.145-8.257-.034-16.515-.012-24.773-.012q-36.164,0-72.327.011c-8.323.007-12.722,4.484-12.762,12.89-.006,1.359,0,2.719,0,4.538-.736-.673-1.03-.9-1.274-1.17-7.7-8.554-11.322-18.664-11.668-30.1a11.174,11.174,0,0,0-11.75-11.261,11.289,11.289,0,0,0-11.007,12.042,74.846,74.846,0,0,0,1.268,12.15c4.063,19.964,14.985,35.141,32.4,45.7.8.485,1.892,1.346,1.934,2.084.2,3.569.091,7.157.091,11.056h-3.335c-7.689,0-15.377-.028-23.065.025a17.006,17.006,0,0,0-4.769.55,11.23,11.23,0,0,0-7.827,12.1,11.352,11.352,0,0,0,11.48,10.161c7.876.132,15.756.037,23.634.039h3.47c.214.5.348.668.349.836.027,5.03-.086,10.065.117,15.087.089,2.214-.719,3.286-2.558,4.431-21.275,13.237-32.343,32.473-33.209,57.49a11.456,11.456,0,0,0,11.316,12.123c6.365.083,11.107-4.84,11.554-11.609a65.483,65.483,0,0,1,1.608-11.516,43.011,43.011,0,0,1,12.856-21.209c7.822,25.246,24.322,40.385,50.375,45.661v-5.921q0-39.243,0-78.486Z" transform="translate(-3414)" fill="none" stroke="#2f2f2f" stroke-linecap="round" stroke-linejoin="round" stroke-width="6"/>
    <rect id="Rectangle_72" data-name="Rectangle 72" width="288" height="81.808" rx="4.214" transform="translate(661.185 744.035)" fill="none" stroke="#2f2f2f" stroke-miterlimit="10" stroke-width="6"/>
    <text id="Kevin42" transform="translate(674.703 740.357)" fill="#2f2f2f" font-size="32.576" font-family="SegoeUI, Segoe UI"><tspan x="0" y="35">Kevin42</tspan></text>
    <line id="Line_175" data-name="Line 175" y1="55.7" transform="translate(831.262 754.307)" fill="none" stroke="#2f2f2f" stroke-miterlimit="10" stroke-width="3"/>
  </g>
</svg>
